<mxfile host="app.diagrams.net" modified="2023-09-04T04:36:54.523Z" agent="Mozilla/5.0 (X11; Ubuntu; Linux x86_64; rv:109.0) Gecko/20100101 Firefox/117.0" etag="OXugI05o22gIStXV7KqX" version="21.7.2" type="github">
  <diagram name="Page-1" id="mNgZvDgAI-QuO_4RxU-C">
    <mxGraphModel dx="1114" dy="615" grid="1" gridSize="10" guides="1" tooltips="1" connect="1" arrows="1" fold="1" page="1" pageScale="1" pageWidth="1390" pageHeight="980" math="0" shadow="0">
      <root>
        <mxCell id="0" />
        <mxCell id="1" parent="0" />
        <mxCell id="1CgvkL-WkVbX1gvm920F-4" style="edgeStyle=orthogonalEdgeStyle;rounded=0;orthogonalLoop=1;jettySize=auto;html=1;exitX=1;exitY=0.5;exitDx=0;exitDy=0;entryX=0;entryY=0.5;entryDx=0;entryDy=0;" edge="1" parent="1" source="1CgvkL-WkVbX1gvm920F-1" target="1CgvkL-WkVbX1gvm920F-2">
          <mxGeometry relative="1" as="geometry" />
        </mxCell>
        <mxCell id="1CgvkL-WkVbX1gvm920F-7" value="TURNO" style="edgeLabel;html=1;align=center;verticalAlign=middle;resizable=0;points=[];" vertex="1" connectable="0" parent="1CgvkL-WkVbX1gvm920F-4">
          <mxGeometry x="0.0125" y="1" relative="1" as="geometry">
            <mxPoint as="offset" />
          </mxGeometry>
        </mxCell>
        <mxCell id="1CgvkL-WkVbX1gvm920F-1" value="JUGADOR" style="rounded=0;whiteSpace=wrap;html=1;" vertex="1" parent="1">
          <mxGeometry x="240" y="270" width="120" height="60" as="geometry" />
        </mxCell>
        <mxCell id="1CgvkL-WkVbX1gvm920F-5" style="edgeStyle=orthogonalEdgeStyle;rounded=0;orthogonalLoop=1;jettySize=auto;html=1;exitX=1;exitY=0.5;exitDx=0;exitDy=0;entryX=0;entryY=0.5;entryDx=0;entryDy=0;" edge="1" parent="1" source="1CgvkL-WkVbX1gvm920F-2" target="1CgvkL-WkVbX1gvm920F-3">
          <mxGeometry relative="1" as="geometry" />
        </mxCell>
        <mxCell id="1CgvkL-WkVbX1gvm920F-6" value="CARTA" style="edgeLabel;html=1;align=center;verticalAlign=middle;resizable=0;points=[];" vertex="1" connectable="0" parent="1CgvkL-WkVbX1gvm920F-5">
          <mxGeometry x="-0.0615" y="1" relative="1" as="geometry">
            <mxPoint as="offset" />
          </mxGeometry>
        </mxCell>
        <mxCell id="1CgvkL-WkVbX1gvm920F-12" style="edgeStyle=orthogonalEdgeStyle;rounded=0;orthogonalLoop=1;jettySize=auto;html=1;entryX=0.5;entryY=1;entryDx=0;entryDy=0;" edge="1" parent="1" source="1CgvkL-WkVbX1gvm920F-2" target="1CgvkL-WkVbX1gvm920F-11">
          <mxGeometry relative="1" as="geometry" />
        </mxCell>
        <mxCell id="1CgvkL-WkVbX1gvm920F-13" value="CARTA" style="edgeLabel;html=1;align=center;verticalAlign=middle;resizable=0;points=[];" vertex="1" connectable="0" parent="1CgvkL-WkVbX1gvm920F-12">
          <mxGeometry y="1" relative="1" as="geometry">
            <mxPoint as="offset" />
          </mxGeometry>
        </mxCell>
        <mxCell id="1CgvkL-WkVbX1gvm920F-2" value="&lt;div&gt;SACAR CARTA&lt;/div&gt;&lt;div&gt;DEL MAZO&lt;br&gt;&lt;/div&gt;" style="ellipse;whiteSpace=wrap;html=1;" vertex="1" parent="1">
          <mxGeometry x="520" y="260" width="120" height="80" as="geometry" />
        </mxCell>
        <mxCell id="1CgvkL-WkVbX1gvm920F-3" value="&lt;div&gt;AGREGAR&lt;/div&gt;&lt;div&gt;A LA MANO&lt;br&gt;&lt;/div&gt;" style="ellipse;whiteSpace=wrap;html=1;" vertex="1" parent="1">
          <mxGeometry x="770" y="260" width="120" height="80" as="geometry" />
        </mxCell>
        <mxCell id="1CgvkL-WkVbX1gvm920F-10" style="edgeStyle=orthogonalEdgeStyle;rounded=0;orthogonalLoop=1;jettySize=auto;html=1;entryX=0.5;entryY=0;entryDx=0;entryDy=0;" edge="1" parent="1" source="1CgvkL-WkVbX1gvm920F-8" target="1CgvkL-WkVbX1gvm920F-3">
          <mxGeometry relative="1" as="geometry" />
        </mxCell>
        <mxCell id="1CgvkL-WkVbX1gvm920F-8" value="&lt;u&gt;MANO DEL JUGADOR&lt;br&gt;&lt;/u&gt;" style="text;html=1;align=center;verticalAlign=middle;resizable=0;points=[];autosize=1;strokeColor=none;fillColor=none;" vertex="1" parent="1">
          <mxGeometry x="755" y="118" width="150" height="30" as="geometry" />
        </mxCell>
        <mxCell id="1CgvkL-WkVbX1gvm920F-14" style="edgeStyle=orthogonalEdgeStyle;rounded=0;orthogonalLoop=1;jettySize=auto;html=1;exitX=0;exitY=0.5;exitDx=0;exitDy=0;entryX=0.5;entryY=0;entryDx=0;entryDy=0;" edge="1" parent="1" source="1CgvkL-WkVbX1gvm920F-11" target="1CgvkL-WkVbX1gvm920F-1">
          <mxGeometry relative="1" as="geometry" />
        </mxCell>
        <mxCell id="1CgvkL-WkVbX1gvm920F-15" value="CARTA" style="edgeLabel;html=1;align=center;verticalAlign=middle;resizable=0;points=[];" vertex="1" connectable="0" parent="1CgvkL-WkVbX1gvm920F-14">
          <mxGeometry x="-0.3529" y="1" relative="1" as="geometry">
            <mxPoint as="offset" />
          </mxGeometry>
        </mxCell>
        <mxCell id="1CgvkL-WkVbX1gvm920F-11" value="&lt;div&gt;MOSTRAR CARTA&lt;/div&gt;&lt;div&gt;AL JUGADOR&lt;br&gt;&lt;/div&gt;" style="ellipse;whiteSpace=wrap;html=1;" vertex="1" parent="1">
          <mxGeometry x="520" y="110" width="120" height="80" as="geometry" />
        </mxCell>
      </root>
    </mxGraphModel>
  </diagram>
</mxfile>
